<?xml version="1.0" encoding="UTF-8" standalone="no"?>
<!-- Created with Inkscape (http://www.inkscape.org/) -->

<svg
   width="210mm"
   height="297mm"
   viewBox="0 0 210 297"
   version="1.1"
   id="svg5"
   inkscape:version="1.3.2 (091e20e, 2023-11-25, custom)"
   sodipodi:docname="kunskapskampen.svg"
   inkscape:export-filename="kunskapskampen.png"
   inkscape:export-xdpi="96.851974"
   inkscape:export-ydpi="96.851974"
   xmlns:inkscape="http://www.inkscape.org/namespaces/inkscape"
   xmlns:sodipodi="http://sodipodi.sourceforge.net/DTD/sodipodi-0.dtd"
   xmlns="http://www.w3.org/2000/svg"
   xmlns:svg="http://www.w3.org/2000/svg">
  <sodipodi:namedview
     id="namedview7"
     pagecolor="#ffffff"
     bordercolor="#000000"
     borderopacity="0.25"
     inkscape:showpageshadow="2"
     inkscape:pageopacity="0.0"
     inkscape:pagecheckerboard="0"
     inkscape:deskcolor="#d1d1d1"
     inkscape:document-units="mm"
     showgrid="false"
     inkscape:zoom="0.5"
     inkscape:cx="306"
     inkscape:cy="661"
     inkscape:window-width="1920"
     inkscape:window-height="991"
     inkscape:window-x="-9"
     inkscape:window-y="-9"
     inkscape:window-maximized="1"
     inkscape:current-layer="layer1" />
  <defs
     id="defs2" />
  <g
     inkscape:label="Lager 1"
     inkscape:groupmode="layer"
     id="layer1">
    <g
       id="g1023">
      <g
         id="g901"
         transform="translate(183.34689,96.874002)">
        <path
           id="path236-1-5-9"
           style="fill:#000500;fill-opacity:1;stroke-width:0.262503"
           d="m -74.643795,-4.0788524 c -17.94948,-1.9e-4 -32.500525,14.5508804 -32.500335,32.5003404 h 5.00021 c -7e-5,-15.18788 12.312225,-27.5002004 27.500125,-27.5001304 15.18768,2.1e-4 27.499684,12.3124504 27.499614,27.5001304 2e-5,2.57947 -0.53029,5.25867 -1.49035,7.80572 -3.343374,6.4081 -7.490614,10.81928 -11.369334,15.07557 -2.06746,2.38667 -3.76119,4.65748 -5.14491,6.91999 -3.67958,7.03115 -5.22995,13.36298 -5.67355,20.50262 h 2.16524 2.51096 c 0.2785,-2.43847 0.61701,-4.64849 1.01699,-6.63267 0.70439,-3.49426 1.58703,-6.33679 2.61224,-8.71316 0.98549,-2.2843 2.1028,-4.13788 3.32021,-5.72471 2.06144,-2.37695 4.0111,-4.44665 5.80482,-6.36654 6.594364,-7.0582 11.079574,-12.08624 11.248414,-22.86682 1.9e-4,-17.94926 -14.550574,-32.5002504 -32.499834,-32.5003404 z" />
        <ellipse
           style="fill:#000500;fill-opacity:1;stroke:none;stroke-width:0.264584;stroke-opacity:1"
           id="path21439-6"
           cx="-68.482765"
           cy="78.725388"
           rx="2.3366451"
           ry="0.42079866" />
        <ellipse
           style="fill:#000600;fill-opacity:1;stroke:none;stroke-width:0.264584;stroke-opacity:1"
           id="path21439-84-8"
           cx="-104.64397"
           cy="28.421495"
           rx="2.5001581"
           ry="0.42079866" />
      </g>
      <rect
         style="opacity:1;fill:#000500;fill-opacity:1;stroke-width:0.264583"
         id="rect921"
         width="15.962348"
         height="2.4416831"
         x="55.169956"
         y="124.07423"
         rx="1.9420332"
         ry="1.8249136"
         inkscape:transform-center-x="45.551093" />
      <rect
         style="opacity:1;fill:#000500;fill-opacity:1;stroke-width:0.264583"
         id="rect921-4-2"
         width="15.962348"
         height="2.4416831"
         x="104.23541"
         y="50.007893"
         rx="1.9420332"
         ry="1.8249136"
         inkscape:transform-center-x="39.01747"
         transform="rotate(31.066951)"
         inkscape:transform-center-y="-23.506162" />
      <rect
         style="opacity:1;fill:#000500;fill-opacity:1;stroke-width:0.264583"
         id="rect921-4-2-6"
         width="15.962348"
         height="2.4416831"
         x="109.69436"
         y="-30.752073"
         rx="1.9420332"
         ry="1.8249136"
         inkscape:transform-center-x="23.248133"
         transform="rotate(59.311195)"
         inkscape:transform-center-y="-39.171759" />
      <rect
         style="opacity:1;fill:#000500;fill-opacity:1;stroke-width:0.264583"
         id="rect921-7"
         width="15.962348"
         height="2.4416831"
         x="-162.2345"
         y="124.07423"
         rx="1.9420332"
         ry="1.8249136"
         inkscape:transform-center-x="-45.551096"
         transform="scale(-1,1)" />
      <rect
         style="opacity:1;fill:#000500;fill-opacity:1;stroke-width:0.264583"
         id="rect921-4-2-4"
         width="15.962348"
         height="2.4416831"
         x="-81.985603"
         y="162.19713"
         rx="1.9420332"
         ry="1.8249136"
         inkscape:transform-center-x="-39.017471"
         transform="matrix(-0.85656489,0.51603934,0.51603934,0.85656489,0,0)"
         inkscape:transform-center-y="-23.506162" />
      <rect
         style="opacity:1;fill:#000500;fill-opacity:1;stroke-width:0.264583"
         id="rect921-4-2-6-4"
         width="15.962348"
         height="2.4416831"
         x="-1.2634164"
         y="156.20532"
         rx="1.9420332"
         ry="1.8249136"
         inkscape:transform-center-x="-23.24814"
         transform="matrix(-0.5103749,0.85995201,0.85995201,0.5103749,0,0)"
         inkscape:transform-center-y="-39.171755" />
      <rect
         style="opacity:1;fill:#000500;fill-opacity:1;stroke-width:0.264583"
         id="rect921-4-2-6-7"
         width="15.962348"
         height="2.4416831"
         x="72.202599"
         y="-109.41403"
         rx="1.9420332"
         ry="1.8249136"
         inkscape:transform-center-x="0.1847328"
         transform="rotate(89.76764)"
         inkscape:transform-center-y="-45.550726" />
      <g
         id="g26728"
         transform="translate(-4e-5,1.83e-4)">
        <rect
           style="opacity:1;fill:#000500;fill-opacity:1;stroke-width:0.29873"
           id="rect587"
           width="16.695"
           height="2.80633"
           x="100.35384"
           y="176.56073"
           rx="2.3610301"
           ry="1.8520833" />
        <rect
           style="opacity:1;fill:#000500;fill-opacity:1;stroke-width:0.276572"
           id="rect587-9"
           width="14.31"
           height="2.80633"
           x="101.54628"
           y="180.37306"
           rx="2.0237391"
           ry="1.8520833" />
        <rect
           style="opacity:1;fill:#000500;fill-opacity:1;stroke-width:0.252473"
           id="rect587-7"
           width="11.924999"
           height="2.80633"
           x="102.73874"
           y="184.18539"
           rx="1.6864496"
           ry="1.8520833" />
        <circle
           style="opacity:1;fill:#000500;fill-opacity:1;stroke-width:0.177057"
           id="path661"
           cx="108.70124"
           cy="192.44228"
           r="4.4445438" />
      </g>
    </g>
  </g>
</svg>
